<?xml version="1.0" encoding="UTF-8"?>
<svg id="Layer_2" data-name="Layer 2" xmlns="http://www.w3.org/2000/svg" viewBox="0 0 133.8 26.81">
  <defs>
    <style>
      .cls-1 {
        fill: #0a2d49;
      }
    </style>
  </defs>
  <g id="Layer_1-2" data-name="Layer 1">
    <path class="cls-1" d="M19,22.19L1.06,9.81c-1.82-1.25-1.2-3.86,1.07-4.48L21.2,.16c.4-.15,.84-.19,1.26-.14,.43,.06,.83,.21,1.19,.45,.35,.24,.64,.57,.85,.95,.2,.38,.31,.8,.32,1.23l-1.13,17.55c-.13,2.08-2.86,3.24-4.68,1.99Z"/>
    <path class="cls-1" d="M13.31,25.24L2.74,4.58c-.24-.47-.35-1-.31-1.53,.04-.53,.23-1.04,.54-1.47,.31-.43,.73-.77,1.22-.97,.49-.2,1.03-.27,1.55-.19L25.34,3.44c.45,.07,.88,.25,1.25,.51,.37,.27,.67,.62,.88,1.02,.21,.41,.32,.86,.32,1.31,0,.46-.11,.91-.32,1.31l-9.02,17.65c-.24,.47-.61,.87-1.06,1.14-.45,.28-.97,.42-1.5,.42-.53,0-1.05-.15-1.5-.42-.45-.28-.82-.67-1.06-1.14Z"/>
    <path class="cls-1" d="M24.76,3.35L15,1.84,3.01,5.1,7.8,14.46l11.2,7.73c.25,.17,.52,.3,.81,.38l4.26-8.32,.7-10.9Z"/>
    <path class="cls-1" d="M74.22,5.76c0-.36,.11-.72,.31-1.02,.2-.3,.49-.54,.82-.68,.34-.14,.7-.18,1.06-.1,.36,.07,.68,.25,.94,.5,.26,.26,.43,.58,.5,.94,.07,.36,.03,.72-.1,1.06-.14,.34-.37,.62-.68,.82-.3,.2-.66,.31-1.02,.31-.49,0-.95-.2-1.29-.54-.34-.34-.54-.81-.54-1.29Zm.31,2.73h3.06v10.19h-3.06V8.5Z"/>
    <path class="cls-1" d="M90.8,13.59c.04,.67-.06,1.35-.29,1.98-.23,.64-.58,1.22-1.03,1.72-.45,.5-1,.91-1.61,1.19-.61,.29-1.27,.45-1.95,.48-.57,.03-1.13-.06-1.66-.28-.53-.22-1-.54-1.38-.96v5.04h-3.06V8.5h3.06v.96c.38-.42,.85-.75,1.38-.96,.53-.21,1.09-.31,1.66-.28,.67,.03,1.33,.2,1.95,.48,.61,.29,1.16,.69,1.61,1.19,.45,.5,.8,1.08,1.03,1.72,.23,.64,.32,1.31,.29,1.98Zm-3.06,0c-.01-.48-.16-.94-.44-1.33-.27-.39-.66-.69-1.1-.87-.44-.17-.93-.21-1.4-.11-.47,.1-.89,.34-1.23,.68-.33,.34-.56,.77-.65,1.24s-.04,.95,.15,1.39c.19,.44,.5,.82,.89,1.08,.4,.26,.86,.4,1.34,.4,.33,.01,.66-.04,.96-.16,.31-.12,.58-.3,.81-.54,.23-.24,.41-.52,.52-.82,.11-.31,.16-.64,.14-.96Z"/>
    <path class="cls-1" d="M100.24,15.63c0,2.34-2.04,3.34-4.24,3.34-.89,.08-1.78-.11-2.56-.54-.78-.43-1.41-1.09-1.82-1.89l2.65-1.51c.11,.37,.34,.69,.65,.91,.32,.22,.7,.32,1.08,.29,.73,0,1.1-.23,1.1-.63,0-1.12-5.01-.53-5.01-4.06,0-2.22,1.88-3.34,4-3.34,.8-.02,1.59,.16,2.28,.55,.7,.38,1.28,.95,1.69,1.63l-2.61,1.41c-.11-.27-.3-.5-.55-.66-.24-.16-.53-.24-.82-.24-.53,0-.86,.2-.86,.57,0,1.17,5.01,.4,5.01,4.17Z"/>
    <path class="cls-1" d="M111.41,8.5v10.19h-3.06v-.96c-.35,.42-.8,.76-1.31,.97-.51,.22-1.06,.31-1.61,.27-2.06,0-3.81-1.47-3.81-4.22v-6.26h3.06v5.81c-.03,.24,0,.49,.08,.72,.08,.23,.21,.44,.38,.62,.17,.18,.37,.31,.6,.4,.23,.09,.47,.13,.72,.11,1.12,0,1.9-.65,1.9-2.1v-5.57h3.05Z"/>
    <path class="cls-1" d="M128.94,12.43v6.26h-3.06v-5.99c0-1.02-.49-1.67-1.47-1.67s-1.59,.71-1.59,1.92v5.75h-3.06v-5.99c0-1.02-.49-1.67-1.47-1.67s-1.59,.71-1.59,1.92v5.75h-3.06V8.5h3.06v.93c.32-.42,.73-.75,1.21-.96,.48-.21,1-.3,1.52-.26,.52-.03,1.05,.08,1.51,.32,.47,.24,.87,.59,1.16,1.02,.34-.46,.79-.82,1.31-1.05,.52-.24,1.09-.34,1.65-.29,2.34,0,3.87,1.68,3.87,4.22Z"/>
    <path class="cls-1" d="M131.53,8.43c1.25,0,2.27-1.02,2.27-2.27s-1.02-2.27-2.27-2.27-2.27,1.02-2.27,2.27,1.02,2.27,2.27,2.27Z"/>
    <path class="cls-1" d="M32.47,3.81h3.06v14.88h-3.06V3.81Zm4.79,9.79c0-1.07,.31-2.11,.9-3,.59-.89,1.43-1.59,2.42-2,.99-.41,2.07-.52,3.12-.31,1.05,.21,2.01,.72,2.77,1.47,.76,.75,1.27,1.72,1.48,2.76,.21,1.05,.1,2.13-.3,3.12-.41,.99-1.1,1.83-1.99,2.43-.89,.59-1.93,.91-3,.91-.71,0-1.41-.13-2.07-.39-.66-.27-1.25-.66-1.76-1.16-.5-.5-.9-1.1-1.17-1.75-.27-.66-.41-1.36-.4-2.07Zm7.75,0c-.01-.46-.16-.91-.42-1.29-.26-.38-.64-.67-1.06-.84-.43-.17-.9-.21-1.35-.11-.45,.1-.86,.33-1.18,.66-.32,.33-.54,.75-.62,1.2-.09,.45-.04,.92,.14,1.35,.18,.42,.48,.79,.86,1.04s.84,.39,1.3,.39c.32,0,.63-.05,.92-.17,.29-.12,.56-.3,.78-.52,.22-.23,.39-.5,.5-.79,.11-.3,.16-.61,.14-.93h0Zm15.25-5.1v9.68c0,3.43-2.67,4.87-5.38,4.87-.95,.07-1.91-.12-2.76-.56-.85-.44-1.57-1.1-2.07-1.91l2.61-1.51c.21,.43,.55,.78,.96,1.01,.42,.23,.89,.33,1.36,.28,.3,.04,.61,.01,.9-.08,.29-.09,.55-.25,.78-.46,.22-.21,.39-.47,.5-.75,.11-.28,.15-.59,.13-.89v-.94c-.36,.44-.81,.79-1.33,1.02-.52,.23-1.08,.34-1.65,.31-1.35-.04-2.62-.61-3.56-1.57s-1.46-2.26-1.46-3.61,.52-2.64,1.46-3.61c.94-.97,2.21-1.53,3.56-1.57,.57-.03,1.13,.08,1.65,.31,.52,.23,.97,.58,1.33,1.02v-1.04h2.98Zm-2.98,4.89c.02-.49-.11-.98-.37-1.4s-.64-.75-1.09-.95c-.45-.2-.95-.27-1.43-.18s-.94,.31-1.29,.65c-.36,.34-.6,.78-.7,1.26-.1,.48-.06,.98,.12,1.44,.18,.46,.5,.85,.91,1.12,.41,.28,.89,.42,1.38,.42,.32,.02,.64-.02,.95-.13,.3-.11,.58-.28,.81-.5,.23-.22,.42-.49,.54-.79,.12-.3,.18-.62,.17-.94h0Zm4.71,.2c0-1.07,.31-2.11,.9-3,.59-.89,1.43-1.59,2.42-2,.99-.41,2.07-.52,3.12-.31,1.05,.21,2.01,.72,2.77,1.47,.76,.75,1.27,1.72,1.48,2.76,.21,1.05,.1,2.13-.3,3.12-.41,.99-1.1,1.83-1.99,2.43-.89,.59-1.93,.91-3,.91-.71,0-1.41-.13-2.07-.39-.66-.27-1.25-.66-1.76-1.16-.5-.5-.9-1.1-1.17-1.75-.27-.66-.41-1.36-.4-2.07h0Zm7.75,0c-.01-.46-.16-.91-.42-1.29-.26-.38-.64-.67-1.07-.84-.43-.17-.9-.21-1.35-.11-.45,.1-.86,.33-1.19,.66-.32,.33-.54,.75-.63,1.2-.09,.45-.04,.92,.14,1.35,.18,.43,.48,.79,.86,1.04,.38,.26,.84,.39,1.3,.39,.31,0,.63-.05,.92-.17,.29-.12,.56-.3,.78-.52,.22-.23,.39-.49,.5-.79,.11-.29,.16-.61,.15-.92h0Z"/>
  </g>
</svg>