<?xml version="1.0" encoding="UTF-8"?>
<svg id="Layer_1" data-name="Layer 1" xmlns="http://www.w3.org/2000/svg" viewBox="0 0 172 41">
  <defs>
    <style>
      .cls-1 {
        fill: #0a2d49;
      }
    </style>
  </defs>
  <path class="cls-1" d="M49.04,29.25h11.35v-3.23h-7.89V10.92h-3.46V29.25Z"/>
  <path class="cls-1" d="M67.21,29.63c1.37,0,2.58-.31,3.63-.92,1.05-.62,1.87-1.47,2.46-2.56,.59-1.09,.89-2.35,.89-3.78s-.29-2.67-.88-3.75c-.59-1.09-1.4-1.95-2.46-2.57-1.04-.62-2.26-.93-3.64-.93s-2.56,.31-3.6,.92c-1.04,.61-1.86,1.46-2.46,2.56-.59,1.09-.89,2.35-.89,3.78s.29,2.67,.87,3.77c.59,1.09,1.4,1.94,2.44,2.56,1.04,.62,2.26,.93,3.64,.93Zm0-3.23c-1.08,0-1.9-.36-2.46-1.08-.55-.73-.83-1.71-.83-2.94s.26-2.16,.79-2.9c.53-.75,1.37-1.12,2.49-1.12s1.92,.36,2.47,1.09c.56,.73,.84,1.71,.84,2.93s-.28,2.15-.83,2.9c-.54,.75-1.37,1.12-2.48,1.12Z"/>
  <path class="cls-1" d="M81.03,29.63c.64,0,1.24-.08,1.78-.23,.55-.15,1.05-.37,1.5-.65v1.39c.02,.51-.11,.93-.39,1.27-.27,.35-.64,.61-1.09,.78-.46,.18-.95,.27-1.46,.27-.48,0-.93-.11-1.35-.32-.41-.21-.72-.52-.94-.93l-3.21,1.55c.53,.89,1.28,1.61,2.25,2.15,.98,.55,2.05,.83,3.22,.83,1.01,0,1.95-.14,2.81-.41,.87-.26,1.6-.67,2.19-1.21,.6-.54,1.01-1.23,1.23-2.07,.08-.3,.13-.6,.15-.9,.03-.3,.05-.62,.05-.95V15.5h-3.03v.76c-.47-.36-1-.64-1.59-.84-.59-.2-1.23-.31-1.95-.31-1.32,0-2.46,.31-3.44,.94-.98,.63-1.74,1.49-2.28,2.58-.53,1.09-.8,2.33-.8,3.73s.26,2.61,.79,3.7c.53,1.09,1.28,1.96,2.23,2.6,.95,.64,2.06,.95,3.32,.95Zm.56-3.08c-.75,0-1.36-.19-1.83-.56-.48-.37-.83-.87-1.06-1.5-.23-.64-.34-1.34-.34-2.11s.12-1.46,.36-2.09c.24-.64,.6-1.14,1.09-1.51,.5-.38,1.14-.57,1.91-.57,1.09,0,1.86,.39,2.33,1.16,.47,.76,.7,1.77,.7,3.02s-.24,2.26-.71,3.03c-.47,.76-1.28,1.15-2.44,1.15Z"/>
  <path class="cls-1" d="M96,29.63c1.37,0,2.58-.31,3.63-.92,1.05-.62,1.87-1.47,2.46-2.56,.59-1.09,.89-2.35,.89-3.78s-.29-2.67-.88-3.75c-.58-1.09-1.4-1.95-2.46-2.57-1.04-.62-2.26-.93-3.64-.93s-2.56,.31-3.6,.92c-1.04,.61-1.86,1.46-2.46,2.56-.59,1.09-.89,2.35-.89,3.78s.29,2.67,.87,3.77c.59,1.09,1.4,1.94,2.44,2.56,1.04,.62,2.26,.93,3.64,.93Zm0-3.23c-1.08,0-1.9-.36-2.46-1.08-.55-.73-.83-1.71-.83-2.94s.26-2.16,.79-2.9c.53-.75,1.37-1.12,2.49-1.12s1.92,.36,2.47,1.09c.56,.73,.84,1.71,.84,2.93s-.28,2.15-.83,2.9c-.54,.75-1.37,1.12-2.48,1.12Z"/>
  <path class="cls-1" d="M104.5,13.59h3.46v-3.05h-3.46v3.05Zm0,15.65h3.46V15.5h-3.46v13.75Z"/>
  <path class="cls-1" d="M110.22,35.36h3.49v-6.61c.45,.28,.95,.5,1.49,.65,.55,.15,1.15,.23,1.8,.23,1.26,0,2.37-.32,3.32-.95,.95-.64,1.69-1.5,2.21-2.6,.54-1.09,.8-2.33,.8-3.7s-.27-2.64-.81-3.73c-.53-1.09-1.29-1.96-2.27-2.58-.98-.63-2.12-.94-3.44-.94-.71,0-1.37,.1-1.96,.31-.59,.2-1.11,.48-1.58,.84v-.76h-3.06v19.85Zm6.21-8.81c-1.15,0-1.97-.38-2.44-1.15-.47-.77-.71-1.78-.71-3.03s.23-2.25,.7-3.02c.47-.77,1.25-1.16,2.33-1.16,.77,0,1.4,.19,1.9,.57,.5,.37,.87,.88,1.11,1.51,.24,.63,.36,1.32,.36,2.09s-.11,1.48-.34,2.11c-.23,.63-.58,1.13-1.06,1.5-.47,.37-1.09,.56-1.83,.56Z"/>
  <path class="cls-1" d="M129.61,29.63c1.8,0,3.21-.4,4.22-1.21,1.02-.81,1.53-1.91,1.53-3.32,0-1.07-.33-1.91-.99-2.53-.65-.62-1.76-1.13-3.33-1.54-1.07-.27-1.87-.49-2.39-.66-.52-.17-.86-.34-1.03-.5-.16-.16-.24-.36-.24-.6,0-.4,.19-.7,.57-.92,.39-.21,.9-.3,1.54-.25,1.35,.1,2.09,.68,2.21,1.73l3.54-.64c-.18-1.25-.79-2.24-1.83-2.97-1.04-.74-2.38-1.11-4-1.11s-2.99,.39-3.98,1.17c-.99,.78-1.49,1.83-1.49,3.16,0,1.05,.34,1.88,1.03,2.49,.69,.6,1.87,1.12,3.55,1.55,.99,.26,1.72,.48,2.19,.64,.48,.16,.78,.33,.92,.5,.14,.16,.2,.38,.2,.65,0,.43-.17,.77-.51,1.02-.34,.24-.82,.36-1.45,.36-.76,0-1.4-.18-1.9-.55-.49-.36-.81-.87-.95-1.51l-3.54,.53c.23,1.43,.87,2.55,1.93,3.33,1.07,.78,2.47,1.17,4.2,1.17Z"/>
  <path class="cls-1" d="M141.74,29.66c.99,0,1.86-.17,2.6-.5,.74-.33,1.36-.77,1.86-1.32v1.41h3.05V15.5h-3.49v6.97c0,.85-.1,1.54-.29,2.06-.19,.52-.43,.91-.73,1.18-.3,.26-.62,.44-.96,.53-.34,.09-.66,.14-.95,.14-.74,0-1.31-.17-1.72-.5-.4-.33-.69-.74-.87-1.23-.18-.49-.28-.98-.32-1.46-.03-.49-.05-.9-.05-1.21v-6.49h-3.51v7.71c0,.23,.02,.59,.05,1.09,.03,.5,.13,1.06,.29,1.67,.16,.6,.43,1.18,.8,1.74,.38,.56,.91,1.02,1.59,1.39,.68,.36,1.56,.55,2.63,.55Z"/>
  <path class="cls-1" d="M151.26,29.25h3.49v-8.32c0-.79,.22-1.43,.65-1.92,.44-.5,1.02-.75,1.74-.75s1.35,.25,1.77,.76c.43,.5,.65,1.2,.65,2.11v8.12h3.46v-8.32c0-.79,.22-1.43,.65-1.92,.44-.5,1.02-.75,1.74-.75s1.35,.25,1.77,.76c.43,.5,.65,1.2,.65,2.11v8.12h3.46v-9.04c0-1.5-.4-2.72-1.21-3.64-.8-.93-1.98-1.4-3.55-1.4-.88,0-1.69,.19-2.43,.57-.74,.38-1.33,.9-1.77,1.57-.36-.64-.87-1.16-1.53-1.55-.66-.39-1.49-.59-2.47-.59-.83,0-1.6,.17-2.29,.5-.7,.32-1.27,.77-1.73,1.34v-1.5h-3.05v13.75Z"/>
  <path class="cls-1" d="M20,.25C8.95,.25,0,9.2,0,20.25,11.05,20.25,20,11.29,20,.25Z"/>
  <path class="cls-1" d="M20,40.25c11.05,0,20-8.95,20-20-11.05,0-20,8.95-20,20Z"/>
  <path class="cls-1" d="M20,.25c11.05,0,20,8.95,20,20C28.95,20.25,20,11.29,20,.25Z"/>
  <path class="cls-1" d="M20,40.25C8.95,40.25,0,31.29,0,20.25c11.05,0,20,8.95,20,20Z"/>
</svg>