<?xml version="1.0" encoding="UTF-8"?>
<svg id="Layer_2" data-name="Layer 2" xmlns="http://www.w3.org/2000/svg" viewBox="0 0 143.52 39.89">
  <defs>
    <style>
      .cls-1, .cls-2 {
        fill: #0a2d49;
      }

      .cls-2 {
        fill-rule: evenodd;
      }
    </style>
  </defs>
  <g id="Layer_1-2" data-name="Layer 1">
    <path class="cls-2" d="M71.14,4.35c1.39-1.39,3.64-1.39,5.03,0,1.39,1.39,1.39,3.64,0,5.03l-8.46,8.46c-2.43-3.26-2.17-7.89,.79-10.84l2.64-2.64Z"/>
    <path class="cls-2" d="M83.24,23.44c1.39,1.39,1.39,3.64,0,5.03-1.39,1.39-3.64,1.39-5.03,0l-8.46-8.46c3.26-2.43,7.89-2.17,10.84,.79l2.64,2.64Z"/>
    <path class="cls-2" d="M64.15,35.54c-1.39,1.39-3.64,1.39-5.03,0-1.39-1.39-1.39-3.64,0-5.03l8.46-8.46c2.43,3.26,2.17,7.89-.79,10.84l-2.64,2.64Z"/>
    <path class="cls-2" d="M52.05,16.45c-1.39-1.39-1.39-3.64,0-5.03,1.39-1.39,3.64-1.39,5.03,0l8.46,8.46c-3.26,2.43-7.89,2.17-10.84-.79l-2.64-2.64Z"/>
    <path class="cls-2" d="M69.25,34.5c2.05-2.28,3-5.19,2.85-8.05l4.06,4.06s.02,.02,.03,.03v2.9c0,1.96-1.59,3.55-3.55,3.55-1.59,0-2.94-1.05-3.39-2.5Z"/>
    <path class="cls-2" d="M53.09,21.55c2.28,2.05,5.19,3,8.05,2.85l-4.06,4.06s-.02,.02-.03,.03h-2.9c-1.96,0-3.55-1.59-3.55-3.55,0-1.59,1.05-2.94,2.5-3.39Z"/>
    <path class="cls-2" d="M82.2,18.34c-2.27-2.05-5.19-3-8.05-2.85l4.06-4.06s.02-.02,.03-.03h2.9c1.96,0,3.55,1.59,3.55,3.55,0,1.59-1.05,2.94-2.5,3.39Z"/>
    <path class="cls-2" d="M66.04,5.39c-2.05,2.28-3,5.19-2.85,8.05l-4.06-4.06s-.02-.02-.03-.03v-2.9c0-1.96,1.59-3.55,3.55-3.55,1.59,0,2.94,1.05,3.39,2.5Z"/>
    <path class="cls-2" d="M62.65,0c-3.56,0-6.44,2.89-6.44,6.44v1.25c-2.14-.56-4.51,0-6.19,1.68-2.52,2.52-2.52,6.6,0,9.11l.89,.89c-1.91,1.12-3.19,3.19-3.19,5.57,0,3.56,2.89,6.44,6.44,6.44h1.25c-.56,2.14,0,4.51,1.68,6.19,2.52,2.52,6.6,2.52,9.11,0l2.64-2.64c2.33-2.33,3.42-5.44,3.27-8.49l4.06,4.06c2.52,2.52,6.6,2.52,9.11,0,2.52-2.52,2.52-6.6,0-9.11l-.89-.89c1.91-1.12,3.19-3.19,3.19-5.57,0-3.56-2.89-6.44-6.44-6.44h-1.25c.56-2.14,0-4.51-1.68-6.19-2.52-2.52-6.6-2.52-9.11,0l-2.64,2.64c-2.33,2.33-3.42,5.44-3.27,8.49l-4.06-4.06s-.02-.02-.03-.03v-2.9c0-1.96,1.59-3.55,3.55-3.55,1.59,0,2.94,1.05,3.39,2.5,.13-.15,.27-.29,.41-.44l1.76-1.76c-1.12-1.91-3.19-3.19-5.57-3.19Zm15.6,11.39s-.02,.02-.03,.03l-4.06,4.06c2.87-.14,5.78,.81,8.05,2.85,1.45-.45,2.5-1.8,2.5-3.39,0-1.96-1.59-3.55-3.55-3.55h-2.9Zm-21.19,17.11s.02-.02,.03-.03l4.06-4.06c-2.87,.14-5.78-.81-8.05-2.85-1.45,.45-2.5,1.8-2.5,3.39,0,1.96,1.59,3.55,3.55,3.55h2.9Zm-4.07-7.05c-.11-.1-.22-.21-.33-.31h0c.11,.11,.22,.21,.33,.31Zm19.67,18.44c-2.37,0-4.45-1.28-5.57-3.19l1.76-1.76c.14-.14,.28-.29,.41-.44,.45,1.45,1.8,2.5,3.39,2.5,1.96,0,3.55-1.59,3.55-3.55v-2.9c.83,.82,1.83,1.37,2.89,1.65v1.25c0,3.56-2.89,6.44-6.44,6.44Zm3.52-35.54c-1.39-1.39-3.64-1.39-5.03,0l-2.64,2.64c-2.96,2.96-3.22,7.59-.79,10.84l8.46-8.46c1.39-1.39,1.39-3.64,0-5.03Zm7.07,24.11c1.39-1.39,1.39-3.64,0-5.03l-2.64-2.64c-2.96-2.96-7.59-3.22-10.84-.79l8.46,8.46c1.39,1.39,3.64,1.39,5.03,0Zm-19.09,7.07c-1.39,1.39-3.64,1.39-5.03,0-1.39-1.39-1.39-3.64,0-5.03l8.46-8.46c2.43,3.26,2.17,7.89-.79,10.84l-2.64,2.64Zm-12.1-24.11c-1.39,1.39-1.39,3.64,0,5.03l2.64,2.64c2.96,2.96,7.59,3.22,10.84,.79l-8.46-8.46c-1.39-1.39-3.64-1.39-5.03,0Z"/>
    <path class="cls-1" d="M0,13.03H3.16v9.82h5.43v2.66H0V13.03Z"/>
    <path class="cls-1" d="M14.33,25.78c-1.06,0-1.99-.19-2.79-.57-.8-.39-1.42-.93-1.86-1.61-.43-.69-.64-1.48-.64-2.38s.21-1.68,.64-2.36c.44-.69,1.06-1.23,1.86-1.61,.8-.39,1.73-.59,2.79-.59s1.99,.2,2.79,.59c.8,.38,1.41,.92,1.84,1.61,.44,.68,.66,1.46,.66,2.36s-.22,1.68-.66,2.38c-.43,.68-1.04,1.21-1.84,1.61-.8,.38-1.73,.57-2.79,.57Zm0-2.45c.63,0,1.13-.18,1.5-.55s.57-.9,.57-1.55-.19-1.17-.57-1.54c-.37-.38-.87-.57-1.5-.57s-1.14,.19-1.52,.57c-.37,.37-.55,.88-.55,1.54s.18,1.17,.55,1.55c.38,.37,.89,.55,1.52,.55Z"/>
    <path class="cls-1" d="M25.52,29.62c-.57,0-1.15-.05-1.73-.16-.57-.11-1.07-.25-1.48-.43v-2.18c.94,.4,2.01,.61,3.21,.61,.87,0,1.49-.18,1.88-.54,.39-.36,.59-.88,.59-1.57v-.52c-.35,.3-.77,.53-1.29,.7-.5,.17-1.04,.25-1.61,.25-.9,0-1.7-.19-2.39-.57-.69-.38-1.23-.92-1.62-1.61-.38-.69-.57-1.48-.57-2.38s.19-1.7,.57-2.39c.38-.69,.92-1.22,1.61-1.59,.69-.38,1.48-.57,2.37-.57,1.23,0,2.24,.38,3.04,1.12v-.86h3.04v7.98c0,1.49-.46,2.64-1.38,3.46-.9,.82-2.32,1.23-4.23,1.23Zm.36-6.27c.49,0,.92-.12,1.3-.38,.38-.25,.65-.58,.8-1v-1.5c-.17-.42-.44-.74-.82-.98-.38-.25-.81-.37-1.29-.37-.64,0-1.16,.19-1.55,.57-.39,.37-.59,.87-.59,1.52s.2,1.18,.59,1.57c.39,.38,.91,.57,1.55,.57Z"/>
    <path class="cls-1" d="M37.21,25.78c-1.06,0-1.99-.19-2.79-.57-.8-.39-1.42-.93-1.86-1.61-.43-.69-.64-1.48-.64-2.38s.21-1.68,.64-2.36c.44-.69,1.06-1.23,1.86-1.61,.8-.39,1.73-.59,2.79-.59s1.99,.2,2.79,.59c.8,.38,1.41,.92,1.84,1.61,.44,.68,.66,1.46,.66,2.36s-.22,1.68-.66,2.38c-.43,.68-1.04,1.21-1.84,1.61-.8,.38-1.73,.57-2.79,.57Zm0-2.45c.63,0,1.13-.18,1.5-.55,.38-.38,.57-.9,.57-1.55s-.19-1.17-.57-1.54c-.37-.38-.87-.57-1.5-.57s-1.14,.19-1.52,.57c-.37,.37-.55,.88-.55,1.54s.18,1.17,.55,1.55c.38,.37,.89,.55,1.52,.55Z"/>
    <path class="cls-1" d="M92.9,13.03h3.16v12.48h-3.16V13.03Z"/>
    <path class="cls-1" d="M97.66,16.94h3.04v.86c.8-.75,1.81-1.12,3.04-1.12,.89,0,1.68,.19,2.38,.57,.69,.37,1.23,.9,1.61,1.59,.38,.68,.57,1.47,.57,2.37s-.19,1.69-.57,2.39c-.38,.69-.92,1.23-1.61,1.61-.68,.38-1.47,.57-2.38,.57-.57,0-1.12-.09-1.64-.27-.51-.17-.94-.4-1.29-.7v4.61h-3.14v-12.48Zm5.25,6.39c.64,0,1.16-.19,1.55-.57,.39-.38,.59-.9,.59-1.55s-.2-1.17-.59-1.54c-.39-.38-.91-.57-1.55-.57-.48,0-.9,.12-1.29,.38-.38,.24-.65,.57-.82,.98v1.52c.17,.42,.44,.75,.82,1,.38,.24,.81,.36,1.29,.36Z"/>
    <path class="cls-1" d="M112.97,25.78c-.69,0-1.41-.07-2.16-.21-.75-.13-1.35-.32-1.79-.57v-2.3c.49,.29,1.07,.52,1.75,.71,.69,.18,1.32,.27,1.89,.27,.42,0,.72-.03,.91-.09,.19-.06,.29-.18,.29-.36,0-.14-.06-.26-.2-.34-.12-.1-.35-.19-.68-.29-.32-.11-.7-.22-1.12-.34-.73-.21-1.3-.43-1.71-.66s-.73-.51-.93-.86c-.2-.35-.3-.78-.3-1.3,0-.93,.36-1.62,1.09-2.07,.74-.46,1.74-.7,3.02-.7,.62,0,1.27,.07,1.95,.2,.69,.13,1.21,.3,1.55,.52v2.27c-.36-.24-.83-.43-1.43-.59-.58-.15-1.13-.23-1.64-.23-.4,0-.72,.04-.95,.12-.23,.07-.34,.2-.34,.39,0,.18,.11,.32,.34,.41,.23,.1,.63,.21,1.21,.36,.38,.1,.54,.14,.48,.12,.76,.2,1.35,.43,1.77,.68s.71,.55,.88,.89c.18,.33,.27,.76,.27,1.29,0,.82-.36,1.48-1.07,1.96-.7,.48-1.73,.71-3.07,.71Z"/>
    <path class="cls-1" d="M121.81,25.78c-1.18,0-2.07-.33-2.66-.98-.58-.65-.88-1.52-.88-2.59v-5.27h3.14v4.91c0,.99,.45,1.48,1.34,1.48,.4,0,.77-.1,1.11-.29s.61-.47,.82-.84v-5.27h3.14v8.57h-3.03v-.93c-.37,.39-.82,.69-1.34,.89-.52,.2-1.07,.3-1.64,.3Z"/>
    <path class="cls-1" d="M129.43,16.94h2.91v.93c.36-.38,.77-.67,1.23-.88,.46-.21,.96-.32,1.48-.32,.64,0,1.15,.1,1.54,.29,.39,.19,.71,.48,.95,.86,.36-.36,.79-.64,1.3-.84,.51-.2,1.03-.3,1.55-.3,1.13,0,1.94,.29,2.41,.88,.48,.57,.71,1.4,.71,2.48v5.48h-3v-5.04c0-.48-.09-.82-.27-1.04-.18-.21-.48-.32-.89-.32-.54,0-.97,.19-1.3,.57,.01,.2,.02,.51,.02,.93v4.89h-3v-5.16c0-.44-.08-.76-.23-.95-.15-.19-.43-.29-.82-.29-.61,0-1.13,.34-1.57,1.02v5.37h-3.02v-8.57Z"/>
  </g>
</svg>