<?xml version="1.0" encoding="UTF-8"?>
<svg id="Layer_2" data-name="Layer 2" xmlns="http://www.w3.org/2000/svg" viewBox="0 0 149.95 40">
  <defs>
    <style>
      .cls-1, .cls-2 {
        fill: #0a2d49;
      }

      .cls-2 {
        fill-rule: evenodd;
      }
    </style>
  </defs>
  <g id="Layer_1-2" data-name="Layer 1">
    <path class="cls-1" d="M49.44,26V8.89h-2.81V26h2.81Z"/>
    <path class="cls-1" d="M51.16,20.3c0,3.5,2.35,5.98,5.91,5.98s5.91-2.48,5.91-5.98-2.35-5.98-5.91-5.98-5.91,2.48-5.91,5.98Zm2.83,0c0-2.05,1.22-3.47,3.08-3.47s3.08,1.43,3.08,3.47-1.22,3.47-3.08,3.47-3.08-1.45-3.08-3.47Z"/>
    <path class="cls-1" d="M63.92,20.07c0,3.31,2.14,5.7,5.34,5.7,1.66,0,3.08-.67,3.8-1.77v1.93c0,1.86-1.17,3.1-3.13,3.1-1.75,0-2.94-.85-3.11-2.35h-2.83c.37,2.97,2.64,4.9,5.77,4.9,3.68,0,6.03-2.42,6.03-6.16V14.64h-2.48l-.16,1.54c-.69-1.2-2.12-1.91-3.8-1.91-3.24,0-5.43,2.46-5.43,5.8Zm2.85-.07c0-1.89,1.2-3.27,2.97-3.27,1.93,0,3.22,1.4,3.22,3.27s-1.29,3.33-3.22,3.33c-1.75,0-2.97-1.43-2.97-3.33Z"/>
    <path class="cls-1" d="M77.18,20.3c0,3.5,2.35,5.98,5.91,5.98s5.91-2.48,5.91-5.98-2.35-5.98-5.91-5.98-5.91,2.48-5.91,5.98Zm2.83,0c0-2.05,1.22-3.47,3.08-3.47s3.08,1.43,3.08,3.47-1.22,3.47-3.08,3.47-3.08-1.45-3.08-3.47Z"/>
    <path class="cls-1" d="M92.04,12.31c.92,0,1.68-.74,1.68-1.68s-.76-1.66-1.68-1.66-1.66,.74-1.66,1.66,.71,1.68,1.66,1.68Zm-1.4,13.69h2.81V14.64h-2.81v11.36Z"/>
    <path class="cls-1" d="M95.9,31.27h2.74v-6.83c.71,1.17,2.25,1.86,3.96,1.86,3.36,0,5.36-2.58,5.31-6.12-.07-3.57-2.12-5.89-5.34-5.89-1.72,0-3.29,.76-3.98,2.07l-.16-1.73h-2.53V31.27Zm2.85-10.95c0-2.05,1.24-3.47,3.2-3.47s3.13,1.45,3.13,3.47-1.17,3.45-3.13,3.45-3.2-1.4-3.2-3.45Z"/>
    <path class="cls-1" d="M108.62,22.6c.09,2.25,1.84,3.7,4.55,3.7s4.49-1.43,4.49-3.63c0-1.63-1.01-2.74-2.88-3.2l-2-.48c-.85-.23-1.43-.53-1.43-1.26,0-.78,.62-1.33,1.63-1.33s1.75,.6,1.75,1.59h2.55c-.09-2.25-1.77-3.68-4.23-3.68s-4.25,1.43-4.25,3.59c0,1.47,.85,2.69,3.04,3.27l1.98,.51c.74,.21,1.2,.55,1.2,1.2,0,.9-.85,1.31-1.89,1.31-1.24,0-1.95-.58-1.95-1.56h-2.55Z"/>
    <path class="cls-1" d="M123.48,26.3c1.54,0,3.01-.71,3.68-1.77l.18,1.47h2.62V14.64h-2.81v5.96c0,2.05-.78,3.2-2.62,3.2-1.43,0-2.42-.69-2.42-3.04v-6.12h-2.81v7.11c0,2.71,1.47,4.55,4.16,4.55Z"/>
    <path class="cls-1" d="M135.24,26v-6.53c0-1.84,1.08-2.71,2.41-2.71s2.21,.85,2.21,2.46v6.78h2.74v-6.51c0-1.86,1.06-2.74,2.39-2.74s2.23,.85,2.23,2.46v6.78h2.71v-7.43c0-2.62-1.45-4.28-4.21-4.28-1.73,0-3.08,.83-3.63,2.16-.62-1.33-1.86-2.16-3.75-2.16-1.33,0-2.53,.62-3.2,1.63l-.14-1.29h-2.58v11.36h2.81Z"/>
    <path class="cls-1" d="M128.52,36.15c.42,0,.78-.35,.78-.77s-.36-.78-.78-.78-.79,.35-.79,.78,.36,.77,.79,.77Z"/>
    <path class="cls-1" d="M130.11,33.32c0,1.68,1.03,2.82,2.54,2.82,1.3,0,2.29-.78,2.5-1.95h-.99c-.19,.65-.76,1.03-1.44,1.03-.97,0-1.58-.75-1.58-1.91s.65-1.91,1.61-1.91c.66,0,1.23,.35,1.41,1.04h.99c-.18-1.18-1.1-1.97-2.39-1.97-1.56,0-2.64,1.15-2.64,2.85Z"/>
    <path class="cls-1" d="M135.53,33.31c0,1.62,1.1,2.83,2.75,2.83s2.75-1.21,2.75-2.83-1.1-2.83-2.75-2.83-2.75,1.21-2.75,2.83Zm1.05,0c0-1.1,.67-1.9,1.7-1.9s1.71,.8,1.71,1.9-.67,1.9-1.71,1.9-1.7-.8-1.7-1.9Z"/>
    <path class="cls-1" d="M142.95,36.01v-3.23c0-.85,.53-1.4,1.3-1.4s1.2,.47,1.2,1.32v3.31h1.01v-3.22c0-.86,.52-1.41,1.3-1.41,.73,0,1.19,.47,1.19,1.32v3.31h1v-3.53c0-1.24-.73-2-1.96-2-.84,0-1.49,.41-1.75,1.07-.28-.66-.88-1.07-1.76-1.07-.67,0-1.26,.31-1.56,.84l-.08-.68h-.92v5.38h1.03Z"/>
    <path class="cls-2" d="M0,20.44v-.2s0-.2,0-.2v-.2s.01-.2,.01-.2v-.2s.02-.2,.02-.2v-.2s.03-.2,.03-.2l.02-.2,.02-.2,.02-.2,.02-.2,.03-.2,.03-.2,.03-.2,.03-.2,.03-.2,.04-.2,.04-.2,.04-.2,.04-.2,.05-.2,.05-.2,.05-.2,.05-.2,.05-.2,.06-.2,.06-.19,.06-.19,.06-.19,.06-.19,.07-.19,.07-.19,.07-.19,.07-.19,.07-.19,.08-.19,.08-.19,.08-.19,.08-.19,.08-.19,.09-.19,.09-.19,.09-.18,.09-.18,.09-.18,.09-.18,.1-.18,.1-.18,.1-.18,.1-.18,.1-.18,.11-.18,.11-.18,.11-.17,.11-.17,.11-.17,.12-.17,.12-.17,.12-.17,.12-.17,.12-.17,.12-.17,.13-.17,.13-.16,.13-.16,.13-.16,.13-.16,.13-.16,.14-.16,.14-.16,.14-.16,.14-.15,.14-.15,.14-.15,.15-.15,.15-.15,.15-.15,.15-.15,.15-.14,.15-.14,.16-.14,.16-.14,.16-.14,.16-.14,.16-.14,.16-.13,.16-.13,.17-.13,.17-.13,.17-.13,.17-.13,.17-.12,.17-.12,.17-.12,.18-.12,.18-.12,.18-.12,.18-.11,.18-.11,.18-.11,.18-.11,.18-.11,.19-.11,.19-.1,.19-.1,.19-.1,.19-.1,.19-.1,.19-.1,.19-.09,.19-.09,.19-.09,.2-.09,.2-.09,.2-.08,.2-.08,.2-.08,.2-.08,.2-.08,.2-.07,.2-.07,.2-.07,.2-.07,.21-.07,.21-.06,.21-.06,.21-.06,.21-.06,.21-.06,.21-.05,.21-.05,.21-.05,.21-.05,.21-.05,.21-.04,.21-.04,.21-.04,.21-.04,.21-.04,.22-.03,.22-.03,.22-.03,.22-.03,.22-.03,.22-.02,.22-.02,.22-.02,.22-.02h.22s1.17-.08,1.17-.08l.07,5.65h.04s.16,0,.16,0h.16s.16,0,.16,0h.16s.16,.01,.16,.01h.16s.16,.02,.16,.02h.16s.16,.02,.16,.02h.16s.16,.03,.16,.03l.16,.02,.16,.02,.16,.02,.16,.02,.16,.02,.16,.03,.16,.03,.16,.03,.16,.03,.16,.03,.16,.03,.16,.03,.16,.04,.16,.04,.16,.04,.16,.04,.16,.04,.16,.04,.16,.05,.16,.05,.16,.05,.16,.05,.16,.05,.16,.05,.15,.06,.15,.06,.15,.06,.15,.06,.15,.06,.15,.06,.15,.06,.15,.07,.15,.07,.15,.07,.15,.07,.15,.07,.15,.07,.15,.08,.15,.08,.15,.08,.15,.08,.14,.08,.14,.08,.14,.08,.14,.09,.14,.09,.14,.09,.14,.09,.14,.09,.14,.09,.14,.09,.14,.1,.14,.1,.13,.1,.13,.1,.13,.1,.13,.1,.13,.1,.13,.1,.13,.11,.13,.11,.13,.11,.13,.11,.12,.11,.12,.11,.12,.11,.12,.12,.12,.12,.12,.12,.12,.12,.12,.12,.12,.12,.11,.12,.11,.12,.11,.12,.11,.13,.11,.13,.11,.13,.11,.13,.11,.13,.1,.13,.1,.13,.1,.13,.1,.13,.1,.14,.1,.14,.1,.14,.09,.14,.09,.14,.09,.14,.09,.14,.09,.14,.09,.14,.09,.14,.08,.15,.08,.15,.08,.15,.08,.15,.08,.15,.08,.15,.08,.15,.07,.15,.07,.15,.07,.15,.07,.15,.07,.15,.07,.16,.07,.16,.06,.16,.06,.16,.06,.16,.06,.16,.06,.16,.06,.16,.05,.16,.05,.16,.05,.16,.05,.16,.05,.16,.05,.16,.04,.16,.04,.16,.04,.17,.04,.17,.04,.17,.04,.17,.03,.17,.03,.17,.03,.17,.03,.17,.03,.17,.03,.17,.02,.17,.02,.17,.02,.17,.02,.17,.02,.17,.02,.17v.17s.03,.17,.03,.17v.17s.02,.17,.02,.17v.17s.01,.17,.01,.17v.17s0,.17,0,.17v.17s0,.17,0,.17v.17s0,.17,0,.17v.17s-.02,.17-.02,.17v.17s-.02,.17-.02,.17v.17s-.03,.17-.03,.17l-.02,.17-.02,.17-.02,.17-.02,.17-.03,.17-.03,.17-.03,.17-.03,.17-.03,.17-.03,.17-.04,.17-.04,.17-.04,.17-.04,.17-.04,.17-.04,.17-.05,.17-.05,.17-.05,.17-.05,.17-.05,.17-.06,.17-.06,.17-.06,.17-.06,.17-.06,.16-.06,.16-.07,.16-.07,.16-.07,.16-.07,.16-.07,.16-.07,.16-.08,.16-.08,.16-.08,.16-.08,.16-.08,.16-.08,.16-.09,.16-.09,.15-.09,.15-.09,.15-.09,.15-.09,.15-.1,.15-.1,.15-.1,.15-.1,.15-.1,.15-.1,.15-.1,.15-.11,.14-.11,.14-.11,.14-.11,.14-.11,.14-.11,.14-.12,.14-.12,.14-.12,.14-.12,.13-.12,.13-.12,.13-.12,.13-.13,.13-.13,.13-.13,.13-.13,.13-.13,.13-.13,.12-.13,.12-.13,.12-.14,.12-.14,.12-.14,.12-.14,.12-.14,.12-.14,.11-.14,.11-.15,.11-.15,.11-.15,.11-.15,.11-.15,.11-.15,.1-.15,.1-.15,.1-.15,.1-.16,.1-.16,.1-.16,.1-.16,.09-.16,.09-.16,.09-.16,.09-.16,.09-.16,.09-.16,.08-.17,.08-.17,.08-.17,.08-.17,.08-.17,.08-.17,.08-.17,.07-.17,.07-.17,.07-.17,.07-.17,.07-.17,.07-.18,.06-.18,.06-.18,.06-.18,.06-.18,.06-.18,.06-.18,.05-.18,.05-.18,.05-.18,.05-.18,.05-.18,.04-.18,.04-.18,.04-.18,.04-.18,.04-.19,.04-.19,.03-.19,.03-.19,.03-.19,.03-.19,.03-.19,.02-.19,.02-.19,.02-.19,.02-.19,.02-.19,.02h-.19s-.19,.03-.19,.03h-.19s-.19,.02-.19,.02h-.19s-.19,.01-.19,.01h-.19s-.19,0-.19,0h-.19s-.19,0-.19,0h-.19s-.19-.01-.19-.01h-.19s-.19-.02-.19-.02h-.19s-.19-.03-.19-.03l-.19-.02-.19-.02-.19-.02-.19-.02-.19-.02-.19-.03-.19-.03-.19-.03-.19-.03-.19-.03-.19-.03-.19-.04-.19-.04-.19-.04-.19-.04-.19-.04-.19-.05-.19-.05-.19-.05-.19-.05-.19-.05-.18-.06-.18-.06-.18-.06-.18-.06-.18-.06-.18-.06-.18-.07-.18-.07-.18-.07-.18-.07-.18-.07-.18-.08-.18-.08-.18-.08-.18-.08-.18-.08-.17-.08-.17-.09-.17-.09-.17-.09-.17-.09-.17-.09-.17-.09-.17-.1-.17-.1-.17-.1-.17-.1-.16-.1-.16-.1-.16-.11-.16-.11-.16-.11-.16-.11-.16-.11-.16-.11-.16-.12-.16-.12-.15-.12-.15-.12-.15-.12-.15-.12-.15-.13-.15-.13-.15-.13-.15-.13-.14-.13-.14-.13-.14-.13-.14-.14-.14-.14-.14-.14-.14-.14-.14-.14-.13-.14-.13-.14-.13-.15-.13-.15-.13-.15-.13-.15-.13-.15-.12-.15-.12-.15-.12-.15-.12-.16-.12-.16-.12-.16-.11-.16-.11-.16-.11-.16-.11-.16-.11-.16-.11-.17-.1-.17-.1-.17-.1-.17-.1-.17-.1-.17-.1-.17-.09-.17-.09-.17-.09-.17-.09-.18-.09-.18-.09-.18-.08-.18-.08-.18-.08-.18-.08-.18-.08-.18-.07-.18-.07-.18-.07-.18-.07-.19-.07-.19-.07-.19-.06-.19-.06-.19-.06-.19-.06-.19-.06-.19-.05-.19-.05-.19-.05-.19-.05-.19-.05-.19-.04-.19-.04-.19-.04-.19-.04-.19-.04-.2-.03-.2-.03-.2-.03-.2-.03-.2-.03-.2-.02-.2-.02-.2-.02-.2-.02-.2-.02-.2v-.2s-.03-.2-.03-.2v-.2s-.02-.2-.02-.2v-.2s-.01-.2-.01-.2v-.2s0-.2,0-.2ZM19.38,5.77l-.05-3.85h-.04s-.2,.03-.2,.03l-.2,.02-.2,.03-.2,.03-.2,.03-.2,.03-.2,.03-.2,.03-.2,.04-.2,.04-.19,.04-.19,.04-.19,.04-.19,.05-.19,.05-.19,.05-.19,.05-.19,.05-.19,.06-.19,.06-.19,.06-.19,.06-.19,.06-.19,.06-.19,.07-.18,.07-.18,.07-.18,.07-.18,.07-.18,.07-.18,.08-.18,.08-.18,.08-.18,.08-.18,.08-.18,.09-.18,.09-.17,.09-.17,.09-.17,.09-.17,.09-.17,.1-.17,.1-.17,.1-.17,.1-.17,.1-.16,.1-.16,.1-.16,.11-.16,.11-.16,.11-.16,.11-.16,.11-.16,.11-.16,.12-.15,.12-.15,.12-.15,.12-.15,.12-.15,.12-.15,.12-.15,.13-.14,.13-.14,.13-.14,.13-.14,.13-.14,.13-.14,.13-.14,.13-.13,.14-.13,.14-.13,.14-.13,.14-.13,.14-.13,.14-.13,.14-.12,.14-.12,.15-.12,.15-.12,.15-.12,.15-.12,.15-.11,.15-.11,.15-.11,.15-.11,.15-.11,.15-.11,.16-.11,.16-.1,.16-.1,.16-.1,.16-.1,.16-.1,.16-.1,.16-.09,.16-.09,.16-.09,.16-.09,.17-.09,.17-.08,.17-.08,.17-.08,.17-.08,.17-.08,.17-.08,.17-.07,.17-.07,.17-.07,.17-.07,.17-.07,.17-.07,.17-.06,.17-.06,.18-.06,.18-.06,.18-.06,.18-.05,.18-.05,.18-.05,.18-.05,.18-.05,.18-.04,.18-.04,.18-.04,.18-.04,.18-.04,.18-.04,.18-.03,.18-.03,.18-.03,.18-.03,.18-.03,.18-.02,.18-.02,.18-.02,.18-.02,.18-.02,.18v.18s-.03,.18-.03,.18v.18s-.02,.18-.02,.18v.18s-.01,.18-.01,.18v.18s0,.18,0,.18v.18s0,.18,0,.18v.18s0,.18,0,.18v.18s.02,.18,.02,.18v.18s.02,.18,.02,.18v.18s.03,.18,.03,.18l.02,.18,.02,.18,.02,.18,.02,.18,.03,.18,.03,.18,.03,.18,.03,.18,.03,.18,.04,.18,.04,.18,.04,.18,.04,.18,.04,.18,.04,.18,.05,.17,.05,.17,.05,.17,.05,.17,.05,.17,.05,.17,.06,.17,.06,.17,.06,.17,.06,.17,.06,.17,.06,.17,.07,.17,.07,.17,.07,.17,.07,.16,.07,.16,.07,.16,.08,.16,.08,.16,.08,.16,.08,.16,.08,.16,.08,.16,.09,.16,.09,.16,.09,.16,.09,.15,.09,.15,.09,.15,.1,.15,.1,.15,.1,.15,.1,.15,.1,.15,.1,.15,.1,.14,.11,.14,.11,.14,.11,.14,.11,.14,.11,.14,.11,.14,.11,.14,.11,.14,.12,.13,.12,.13,.12,.13,.12,.13,.12,.13,.12,.13,.12,.13,.13,.13,.13,.12,.13,.12,.13,.12,.13,.12,.13,.12,.13,.12,.13,.12,.13,.11,.14,.11,.14,.11,.14,.11,.14,.11,.14,.11,.14,.11,.14,.11,.14,.1,.14,.1,.14,.1,.15,.1,.15,.1,.15,.1,.15,.09,.15,.09,.15,.09,.15,.09,.15,.09,.15,.09,.15,.09,.15,.08,.16,.08,.16,.08,.16,.08,.16,.08,.16,.08,.16,.07,.16,.07,.16,.07,.16,.07,.16,.07,.16,.07,.16,.06,.16,.06,.16,.06,.16,.06,.16,.06,.17,.06,.17,.06,.17,.05,.17,.05,.17,.05,.17,.05,.17,.05,.17,.05,.17,.04,.17,.04,.17,.04,.17,.04,.17,.04,.17,.03,.17,.03,.17,.03,.17,.03,.17,.03,.17,.03,.17,.02,.17,.02,.17,.02,.17,.02,.17,.02,.17,.02h.17s.17,.03,.17,.03h.17s.17,.02,.17,.02h.17s.17,.01,.17,.01h.17s.17,0,.17,0h.17s.17,0,.17,0h.17s.17,0,.17,0h.17s.17-.01,.17-.01h.17s.17-.02,.17-.02h.17s.17-.03,.17-.03l.17-.02,.17-.02,.17-.02,.17-.02,.17-.02,.17-.02,.17-.03,.17-.03,.17-.03,.17-.03,.17-.03,.17-.03,.17-.04,.17-.04,.17-.04,.16-.04,.16-.04,.16-.04,.16-.04,.16-.05,.16-.05,.16-.05,.16-.05,.16-.05,.16-.05,.16-.06,.16-.06,.16-.06,.16-.06,.16-.06,.16-.06,.15-.06,.15-.07,.15-.07,.15-.07,.15-.07,.15-.07,.15-.07,.15-.08,.15-.08,.15-.08,.15-.08,.15-.08,.14-.08,.14-.08,.14-.08,.14-.09,.14-.09,.14-.09,.14-.09,.14-.09,.14-.09,.14-.09,.13-.1,.13-.1,.13-.1,.13-.1,.13-.1,.13-.1,.13-.1,.13-.1,.13-.11,.12-.11,.12-.11,.12-.11,.12-.11,.12-.11,.12-.11,.12-.11,.12-.11,.12-.12,.11-.12,.11-.12,.11-.12,.11-.12,.11-.12,.11-.12,.11-.12,.1-.12,.1-.12,.1-.13,.1-.13,.1-.13,.1-.13,.1-.13,.1-.13,.09-.13,.09-.13,.09-.13,.09-.13,.09-.13,.09-.13,.09-.14,.08-.14,.08-.14,.08-.14,.08-.14,.08-.14,.08-.14,.08-.14,.07-.14,.07-.14,.07-.14,.07-.14,.07-.14,.07-.14,.06-.14,.06-.15,.06-.15,.06-.15,.06-.15,.06-.15,.06-.15,.05-.15,.05-.15,.05-.15,.05-.15,.05-.15,.05-.15,.04-.15,.04-.15,.04-.15,.04-.15,.04-.15,.04-.15,.04-.15,.03-.15,.03-.15,.03-.15,.03-.15,.03-.15,.03-.15,.02-.15,.02-.15,.02-.15,.02-.15,.02-.15,.02-.15v-.15s.03-.15,.03-.15v-.15s.02-.15,.02-.15v-.15s.02-.15,.02-.15v-.15s0-.15,0-.15v-.15s0-.15,0-.15v-.15s0-.15,0-.15v-.15s-.01-.15-.01-.15v-.15s-.02-.15-.02-.15v-.15s-.02-.15-.02-.15v-.15s-.03-.15-.03-.15l-.02-.15-.02-.15-.02-.15-.02-.15-.02-.15-.02-.15-.03-.15-.03-.15-.03-.15-.03-.15-.03-.15-.03-.15-.04-.15-.04-.15-.04-.15-.04-.15-.04-.15-.04-.15-.04-.15-.05-.14-.05-.14-.05-.14-.05-.14-.05-.14-.05-.14-.05-.14-.06-.14-.06-.14-.06-.14-.06-.14-.06-.14-.06-.14-.06-.14-.07-.14-.07-.14-.07-.13-.07-.13-.07-.13-.07-.13-.07-.13-.07-.13-.08-.13-.08-.13-.08-.13-.08-.13-.08-.13-.08-.13-.08-.12-.08-.12-.09-.12-.09-.12-.09-.12-.09-.12-.09-.12-.09-.12-.09-.12-.09-.12-.1-.12-.1-.11-.1-.11-.1-.11-.1-.11-.1-.11-.1-.11-.1-.11-.1-.11-.1-.11-.11-.1-.11-.1-.11-.1-.11-.1-.11-.1-.11-.1-.11-.1-.11-.1-.11-.1-.11-.09-.12-.09-.12-.09-.12-.09-.12-.09-.12-.09-.12-.09-.12-.09-.12-.08-.12-.08-.12-.08-.12-.08-.12-.08-.12-.08-.13-.08-.13-.08-.13-.07-.13-.07-.13-.07-.13-.07-.13-.07-.13-.07-.13-.07-.13-.07-.13-.06-.13-.06-.13-.06-.13-.06-.13-.06-.14-.06-.13-.05-.14-.05-.14-.05-.14-.05-.14-.05-.14-.05-.14-.05-.14-.05-.14-.04-.14-.04-.14-.04-.14-.04-.14-.04-.14-.04-.14-.04-.14-.04-.14-.03-.14-.03-.14-.03-.14-.03-.14-.03-.14-.03-.14-.03-.14-.02-.14-.02-.14-.02-.14-.02-.14-.02-.14-.02-.14-.02h-.14s-.14-.03-.14-.03h-.14s-.14-.02-.14-.02h-.14s-.14-.02-.14-.02h-.14s-.14,0-.14,0h-.14s-.14,0-.14,0h-.14s-.03,0-.03,0l.05,3.82h.08s.1,0,.1,0h.1s.1,0,.1,0h.11s.11,0,.11,0h.11s.11,.01,.11,.01h.11s.11,.02,.11,.02h.11s.11,.02,.11,.02h.11s.11,.03,.11,.03h.1s.11,.03,.11,.03l.1,.02,.1,.02,.1,.02,.1,.02,.1,.02,.1,.02,.1,.02,.1,.02,.1,.02,.1,.03,.1,.03,.1,.03,.1,.03,.1,.03,.1,.03,.1,.03,.1,.03,.1,.03,.1,.04,.1,.04,.1,.04,.1,.04,.1,.04,.1,.04,.1,.04,.1,.04,.1,.04,.1,.04,.1,.05,.1,.05,.1,.05,.1,.05,.1,.05,.1,.05,.1,.05,.1,.05,.09,.05,.09,.05,.09,.06,.09,.06,.09,.06,.09,.06,.09,.06,.09,.06,.09,.06,.09,.06,.09,.06,.09,.06,.09,.06,.09,.07,.09,.07,.09,.07,.09,.07,.09,.07,.08,.07,.08,.07,.08,.07,.08,.07,.08,.07,.08,.07,.08,.08,.08,.08,.08,.08,.08,.08,.08,.08,.08,.08,.08,.08,.08,.08,.07,.08,.07,.08,.07,.08,.07,.08,.07,.09,.07,.09,.07,.09,.07,.09,.07,.09,.07,.09,.07,.09,.07,.09,.06,.09,.06,.09,.06,.09,.06,.09,.06,.09,.06,.09,.06,.1,.06,.1,.06,.1,.06,.1,.06,.1,.05,.1,.05,.1,.05,.1,.05,.1,.05,.1,.05,.1,.05,.1,.05,.1,.05,.1,.05,.1,.04,.1,.04,.1,.04,.11,.04,.11,.04,.11,.04,.11,.04,.11,.04,.11,.04,.11,.03,.11,.03,.11,.03,.11,.03,.11,.03,.11,.03,.11,.03,.11,.03,.11,.03,.11,.02,.11,.02,.11,.02,.11,.02,.11,.02,.11,.02,.11,.02,.11,.02,.11,.02,.11v.11s.03,.11,.03,.11v.11s.02,.11,.02,.11v.12s.02,.12,.02,.12v.12s.01,.12,.01,.12v.12s0,.12,0,.12v.12s0,.12,0,.12v.12s0,.12,0,.12v.12s0,.12,0,.12v.12s-.01,.12-.01,.12v.12s-.01,.12-.01,.12v.12s-.02,.12-.02,.12v.12s-.02,.12-.02,.12v.12s-.03,.12-.03,.12l-.02,.12-.02,.12-.02,.12-.02,.12-.02,.12-.02,.12-.02,.12-.03,.12-.03,.12-.03,.12-.03,.12-.03,.12-.03,.11-.03,.11-.03,.11-.03,.11-.04,.11-.04,.11-.04,.11-.04,.11-.04,.11-.04,.11-.04,.11-.04,.11-.05,.11-.05,.11-.05,.11-.05,.11-.05,.11-.05,.11-.05,.11-.05,.11-.05,.11-.06,.11-.06,.11-.06,.11-.06,.11-.06,.11-.06,.1-.06,.1-.06,.1-.06,.1-.07,.1-.07,.1-.07,.1-.07,.1-.07,.1-.07,.1-.07,.1-.07,.1-.07,.1-.08,.1-.08,.1-.08,.1-.08,.1-.08,.09-.08,.09-.08,.09-.08,.09-.08,.09-.08,.09-.09,.09-.09,.09-.09,.09-.09,.09-.09,.09-.09,.09-.09,.08-.09,.08-.09,.08-.09,.08-.1,.08-.1,.08-.1,.08-.1,.08-.1,.08-.1,.08-.1,.08-.1,.08-.1,.07-.1,.07-.1,.07-.1,.07-.11,.07-.11,.07-.11,.07-.11,.07-.11,.07-.11,.07-.11,.06-.11,.06-.11,.06-.11,.06-.11,.06-.11,.06-.11,.06-.12,.06-.12,.06-.12,.05-.12,.05-.12,.05-.12,.05-.12,.05-.12,.05-.12,.05-.12,.05-.12,.05-.12,.04-.12,.04-.12,.04-.12,.04-.12,.04-.12,.04-.12,.04-.13,.04-.13,.03-.13,.03-.13,.03-.13,.03-.13,.03-.13,.03-.13,.03-.13,.03-.13,.02-.13,.02-.13,.02-.13,.02-.13,.02-.13,.02-.13,.02-.13,.02h-.13s-.13,.03-.13,.03h-.13s-.13,.02-.13,.02h-.13s-.13,.02-.13,.02h-.13s-.13,.01-.13,.01h-.13s-.13,0-.13,0h-.13s-.13,0-.13,0h-.13s-.13,0-.13,0h-.13s-.13,0-.13,0h-.13s-.13-.01-.13-.01h-.13s-.13-.02-.13-.02h-.13s-.13-.02-.13-.02h-.13s-.13-.03-.13-.03l-.13-.02-.13-.02-.13-.02-.13-.02-.13-.02-.13-.02-.13-.02-.13-.03-.13-.03-.13-.03-.13-.03-.13-.03-.13-.03-.13-.03-.13-.04-.13-.04-.13-.04-.13-.04-.13-.04-.13-.04-.13-.04-.13-.04-.13-.05-.13-.05-.13-.05-.13-.05-.13-.05-.13-.05-.13-.05-.13-.05-.12-.06-.12-.06-.12-.06-.12-.06-.12-.06-.12-.06-.12-.06-.12-.06-.12-.07-.12-.07-.12-.07-.12-.07-.12-.07-.12-.07-.12-.07-.12-.07-.12-.08-.11-.08-.11-.08-.11-.08-.11-.08-.11-.08-.11-.08-.11-.08-.11-.08-.11-.09-.11-.09-.11-.09-.11-.09-.11-.09-.1-.09-.1-.09-.1-.09-.1-.09-.1-.1-.1-.1-.1-.1-.1-.1-.1-.1-.1-.1-.09-.1-.09-.1-.09-.1-.09-.1-.09-.11-.09-.11-.09-.11-.09-.11-.09-.11-.09-.11-.08-.11-.08-.11-.08-.11-.08-.11-.08-.11-.08-.12-.08-.12-.08-.12-.08-.12-.07-.12-.07-.12-.07-.12-.07-.12-.07-.12-.07-.12-.07-.12-.07-.12-.06-.12-.06-.13-.06-.13-.06-.13-.06-.13-.06-.13-.06-.13-.06-.13-.05-.13-.05-.13-.05-.13-.05-.13-.05-.13-.05-.13-.05-.13-.05-.13-.04-.13-.04-.14-.04-.14-.04-.14-.04-.14-.04-.14-.04-.14-.03-.14-.03-.14-.03-.14-.03-.14-.03-.14-.03-.14-.03-.14-.02-.14-.02-.14-.02-.14-.02-.14-.02-.14-.02-.14-.02-.14v-.14s-.03-.14-.03-.14v-.14s-.02-.14-.02-.14v-.14s-.02-.14-.02-.14v-.14s0-.14,0-.14v-.14s0-.14,0-.14v-.14s0-.14,0-.14v-.14s0-.14,0-.14v-.14s.01-.14,.01-.14v-.14s.02-.14,.02-.14v-.14s.03-.14,.03-.14l.02-.14,.02-.14,.02-.14,.02-.14,.02-.14,.02-.14,.02-.14,.03-.14,.03-.14,.03-.14,.03-.14,.03-.14,.03-.14,.03-.14,.04-.14,.04-.14,.04-.14,.04-.14,.04-.14,.04-.14,.05-.14,.05-.14,.05-.14,.05-.14,.05-.14,.05-.14,.05-.14,.06-.14,.06-.14,.06-.14,.06-.14,.06-.14,.06-.13,.06-.13,.07-.13,.07-.13,.07-.13,.07-.13,.07-.13,.07-.13,.07-.13,.08-.13,.08-.13,.08-.13,.08-.13,.08-.13,.08-.13,.08-.13,.08-.12,.09-.12,.09-.12,.09-.12,.09-.12,.09-.12,.09-.12,.09-.12,.09-.12,.1-.12,.1-.12,.1-.12,.1-.11,.1-.11,.1-.11,.1-.11,.1-.11,.11-.11,.11-.11,.11-.11,.11-.11,.11-.11,.11-.1,.11-.1,.11-.1,.12-.1,.12-.1,.12-.1,.12-.1,.12-.1,.12-.1,.12-.1,.12-.09,.12-.09,.12-.09,.13-.09,.13-.09,.13-.09,.13-.09,.13-.09,.13-.08,.13-.08,.13-.08,.13-.08,.13-.08,.14-.08,.14-.08,.14-.08,.14-.07,.14-.07,.14-.07,.14-.07,.14-.07,.14-.07,.14-.07,.14-.06,.14-.06,.14-.06,.15-.06,.15-.06,.15-.06,.15-.06,.15-.06,.15-.05,.15-.05,.15-.05,.15-.05,.15-.05,.15-.05,.15-.04,.15-.04,.15-.04,.15-.04,.15-.04,.16-.04,.16-.04,.16-.03,.16-.03,.16-.03,.16-.03,.16-.03,.16-.03,.16-.03,.16-.02,.16-.02,.16-.02h.06Zm.07,5.66l-.05-3.86-.13,.02-.14,.02-.14,.02-.14,.02-.14,.03-.14,.03-.14,.03-.14,.03-.14,.03-.14,.03-.14,.03-.14,.03-.14,.04-.13,.04-.14,.04-.13,.04-.13,.04-.13,.04-.13,.04-.13,.04-.13,.05-.13,.05-.13,.05-.13,.05-.13,.05-.13,.05-.13,.05-.13,.05-.13,.06-.13,.06-.13,.06-.13,.06-.12,.06-.12,.06-.12,.06-.12,.06-.12,.07-.12,.07-.12,.07-.12,.07-.12,.07-.12,.07-.12,.07-.12,.07-.12,.07-.11,.08-.11,.08-.11,.08-.11,.08-.11,.08-.11,.08-.11,.08-.11,.08-.11,.08-.11,.08-.11,.09-.1,.09-.1,.09-.1,.09-.1,.09-.1,.09-.1,.09-.1,.09-.1,.09-.1,.09-.1,.1-.09,.1-.09,.1-.09,.1-.09,.1-.09,.1-.09,.1-.09,.1-.09,.1-.09,.1-.08,.1-.08,.1-.08,.1-.08,.11-.08,.11-.08,.11-.08,.11-.08,.11-.08,.11-.07,.11-.07,.11-.07,.11-.07,.11-.07,.11-.07,.11-.07,.11-.07,.11-.06,.11-.06,.11-.06,.12-.06,.12-.06,.12-.06,.12-.06,.12-.06,.12-.05,.12-.05,.12-.05,.12-.05,.12-.05,.12-.05,.12-.05,.12-.05,.12-.04,.12-.04,.12-.04,.12-.04,.12-.04,.12-.04,.12-.04,.12-.04,.12-.03,.12-.03,.12-.03,.12-.03,.12-.03,.13-.03,.13-.03,.13-.03,.13-.02,.13-.02,.13-.02,.13-.02,.13-.02,.13-.02,.13-.02,.13v.13s-.03,.13-.03,.13v.13s-.02,.13-.02,.13v.13s-.02,.13-.02,.13v.13s-.01,.13-.01,.13v.13s0,.13,0,.13v.13s0,.13,0,.13v.13s0,.13,0,.13v.13s0,.13,0,.13v.13s.01,.13,.01,.13v.13s.02,.13,.02,.13v.12s.02,.12,.02,.12v.12s.03,.12,.03,.12l.02,.12,.02,.12,.02,.12,.02,.12,.02,.12,.02,.12,.02,.12,.02,.12,.03,.12,.03,.12,.03,.12,.03,.12,.03,.12,.03,.12,.03,.12,.03,.12,.04,.12,.04,.12,.04,.12,.04,.12,.04,.12,.04,.12,.04,.12,.04,.12,.05,.11,.05,.11,.05,.11,.05,.11,.05,.11,.05,.11,.05,.11,.05,.11,.05,.11,.06,.11,.06,.11,.06,.11,.06,.11,.06,.11,.06,.11,.06,.11,.06,.1,.06,.1,.06,.1,.07,.1,.07,.1,.07,.1,.07,.1,.07,.1,.07,.1,.07,.1,.07,.1,.07,.1,.07,.1,.08,.1,.08,.09,.08,.09,.08,.09,.08,.09,.08,.09,.08,.09,.08,.09,.08,.09,.08,.09,.08,.09,.09,.09,.09,.08,.09,.08,.09,.08,.09,.08,.09,.08,.09,.08,.09,.08,.09,.08,.09,.08,.09,.08,.09,.08,.09,.07,.09,.07,.1,.07,.1,.07,.1,.07,.1,.07,.1,.07,.1,.07,.1,.07,.1,.07,.1,.06,.1,.06,.1,.06,.1,.06,.1,.06,.1,.06,.1,.06,.1,.06,.1,.06,.11,.05,.11,.05,.11,.05,.11,.05,.11,.05,.11,.05,.11,.05,.11,.05,.11,.05,.11,.04,.11,.04,.11,.04,.11,.04,.11,.04,.11,.04,.11,.04,.11,.04,.11,.04,.11,.03,.11,.03,.11,.03,.11,.03,.11,.03,.11,.03,.11,.03,.11,.03,.11,.03,.11,.02,.11,.02,.11,.02,.11,.02,.11,.02,.11,.02,.11,.02,.11,.02,.11,.02h.12s.12,.03,.12,.03h.12s.12,.02,.12,.02h.12s.12,.02,.12,.02h.12s.12,.01,.12,.01h.12s.12,0,.12,0h.11s.11,0,.11,0h.11s.11,0,.11,0h.11s.11,0,.11,0h.11s.11,0,.11,0h.11s.11-.01,.11-.01h.11s.11-.02,.11-.02h.11s.11-.02,.11-.02h.11s.11-.03,.11-.03h.11s.11-.03,.11-.03l.11-.02,.11-.02,.11-.02,.11-.02,.11-.02,.11-.02,.11-.02,.11-.02,.11-.03,.11-.03,.11-.03,.11-.03,.11-.03,.11-.03,.11-.03,.11-.03,.11-.03,.11-.03,.11-.04,.11-.04,.1-.04,.1-.04,.1-.04,.1-.04,.1-.04,.1-.04,.1-.04,.1-.04,.1-.05,.1-.05,.1-.05,.1-.05,.1-.05,.1-.05,.1-.05,.1-.05,.1-.05,.1-.05,.09-.06,.09-.06,.09-.06,.09-.06,.09-.06,.09-.06,.09-.06,.09-.06,.09-.06,.09-.06,.09-.06,.09-.06,.09-.07,.09-.07,.08-.07,.08-.07,.08-.07,.08-.07,.08-.07,.08-.07,.08-.07,.08-.07,.08-.07,.08-.07,.08-.07,.08-.07,.08-.08,.07-.08,.07-.08,.07-.08,.07-.08,.07-.08,.07-.08,.07-.08,.07-.08,.07-.08,.07-.08,.07-.08,.06-.08,.06-.08,.06-.08,.06-.08,.06-.08,.06-.09,.06-.09,.06-.09,.06-.09,.06-.09,.06-.09,.05-.09,.05-.09,.05-.09,.05-.09,.05-.09,.05-.09,.05-.09,.05-.09,.05-.09,.05-.09,.04-.09,.04-.09,.04-.09,.04-.09,.04-.09,.04-.09,.04-.09,.04-.09,.04-.1,.04-.1,.03-.1,.03-.1,.03-.1,.03-.1,.03-.1,.03-.1,.03-.1,.03-.1,.03-.1,.03-.1,.02-.1,.02-.1,.02-.1,.02-.1,.02-.1,.02-.1,.02-.1,.02-.1,.02-.1,.02-.1v-.1s.03-.1,.03-.1v-.1s.02-.1,.02-.1v-.1s.02-.1,.02-.1v-.1s.01-.1,.01-.1v-.1s.01-.1,.01-.1v-.1s0-.1,0-.1v-.1s0-.1,0-.1v-.1s0-.1,0-.1v-.1s0-.1,0-.1v-.1s0-.1,0-.1v-.1s-.01-.1-.01-.1v-.1s-.02-.1-.02-.1v-.1s-.02-.1-.02-.1v-.1s-.03-.1-.03-.1v-.1s-.03-.1-.03-.1l-.02-.1-.02-.1-.02-.09-.02-.1-.02-.09-.02-.09-.02-.09-.02-.09-.02-.09-.02-.09-.03-.09-.03-.09-.03-.09-.03-.09-.03-.09-.03-.09-.03-.09-.03-.09-.03-.09-.03-.09-.03-.09-.04-.09-.04-.09-.04-.09-.04-.09-.04-.09-.04-.09-.04-.09-.04-.09-.04-.08-.04-.08-.04-.08-.04-.08-.05-.08-.05-.08-.05-.08-.05-.08-.05-.08-.05-.08-.05-.08-.05-.08-.05-.08-.05-.08-.05-.08-.05-.08-.05-.08-.06-.08-.06-.07-.06-.07-.06-.07-.06-.07-.06-.07-.06-.07-.06-.07-.06-.07-.06-.07-.06-.07-.06-.07-.06-.07-.06-.07-.06-.07-.07-.07-.07-.06-.07-.06-.07-.06-.07-.06-.07-.06-.07-.06-.07-.06-.07-.06-.07-.06-.07-.06-.07-.06-.07-.06-.07-.06-.07-.05-.07-.05-.07-.05-.07-.05-.08-.05-.08-.05-.08-.05-.08-.05-.08-.05-.08-.05-.08-.05-.08-.05-.08-.05-.08-.04-.08-.04-.08-.04-.08-.04-.08-.04-.08-.04-.08-.04-.08-.04-.08-.04-.08-.04-.08-.04-.08-.04-.08-.03-.08-.03-.08-.03-.08-.03-.08-.03-.08-.03-.08-.03-.08-.03-.08-.03-.08-.03-.08-.03-.09-.02-.09-.02-.09-.02-.09-.02-.09-.02-.09-.02-.09-.02-.09-.02-.09-.02-.09-.02-.09-.02-.09-.02h-.09s-.09-.03-.09-.03h-.09s-.09-.02-.09-.02h-.09s-.09-.02-.09-.02h-.09s-.09-.02-.09-.02h-.09s-.09-.01-.09-.01h-.09s-.09-.01-.09-.01h-.09s-.09,0-.09,0h-.09s-.09,0-.09,0h-.09s-.06,0-.06,0l.04,3.78h.03s.05,0,.05,0h.05s.05,0,.05,0h.05s.05,0,.05,0h.05s.05,0,.05,0h.05s.05,0,.05,0h.05s.05,.01,.05,.01h.05s.05,.01,.05,.01h.05s.05,.02,.05,.02h.05s.05,.02,.05,.02h.05s.05,.02,.05,.02h.05s.05,.02,.05,.02h.05s.05,.02,.05,.02h.05s.05,.03,.05,.03h.05s.05,.03,.05,.03h.05s.05,.03,.05,.03l.05,.02,.05,.02,.05,.02,.05,.02,.05,.02,.05,.02,.05,.02,.05,.02,.05,.02,.05,.02,.05,.02,.05,.02,.05,.02,.05,.02,.05,.02,.05,.02,.05,.02,.05,.02,.05,.03,.05,.03,.05,.03,.05,.03,.05,.03,.05,.03,.05,.03,.05,.03,.05,.03,.05,.03,.04,.03,.04,.03,.04,.03,.04,.03,.04,.03,.04,.03,.04,.03,.04,.03,.04,.03,.04,.03,.04,.04,.04,.04,.04,.04,.04,.04,.04,.04,.04,.04,.04,.04,.04,.04,.04,.04,.04,.04,.04,.04,.04,.04,.04,.04,.04,.04,.04,.04,.04,.04,.04,.04,.04,.04,.04,.04,.03,.04,.03,.04,.03,.05,.03,.05,.03,.05,.03,.05,.03,.05,.03,.05,.03,.05,.03,.05,.03,.05,.03,.05,.03,.05,.03,.05,.03,.05,.03,.05,.03,.05,.03,.05,.03,.05,.03,.05,.03,.05,.03,.05,.02,.05,.02,.05,.02,.05,.02,.05,.02,.05,.02,.05,.02,.05,.02,.05,.02,.06,.02,.06,.02,.06,.02,.06,.02,.06,.02,.06,.02,.06,.02,.06,.02,.06,.02,.06v.06s.03,.06,.03,.06v.06s.03,.06,.03,.06v.06s.02,.06,.02,.06v.06s.02,.06,.02,.06v.06s.02,.06,.02,.06v.06s.02,.06,.02,.06v.06s.01,.06,.01,.06v.06s.01,.06,.01,.06v.06s0,.06,0,.06v.06s0,.06,0,.06v.06s0,.06,0,.06v.06s0,.06,0,.06v.06s0,.06,0,.06v.06s0,.06,0,.06v.06s0,.06,0,.06v.06s0,.06,0,.06v.06s-.01,.06-.01,.06v.06s-.01,.06-.01,.06v.06s-.02,.06-.02,.06v.06s-.02,.06-.02,.06v.06s-.02,.06-.02,.06v.06s-.02,.06-.02,.06v.06s-.03,.06-.03,.06v.06s-.03,.06-.03,.06l-.02,.06-.02,.06-.02,.06-.02,.06-.02,.06-.02,.06-.02,.06-.02,.06-.02,.06-.02,.06-.02,.06-.02,.06-.02,.06-.02,.06-.03,.06-.03,.06-.03,.06-.03,.06-.03,.06-.03,.06-.03,.06-.03,.06-.03,.06-.03,.06-.03,.06-.03,.06-.03,.06-.03,.06-.03,.06-.04,.06-.04,.06-.04,.06-.04,.06-.04,.06-.04,.06-.04,.05-.04,.05-.04,.05-.04,.05-.04,.05-.04,.05-.04,.05-.04,.05-.04,.05-.04,.05-.05,.05-.05,.05-.05,.05-.05,.05-.05,.05-.05,.05-.05,.05-.05,.05-.05,.05-.05,.05-.05,.05-.05,.05-.05,.05-.05,.05-.05,.05-.05,.04-.05,.04-.05,.04-.06,.04-.06,.04-.06,.04-.06,.04-.06,.04-.06,.04-.06,.04-.06,.04-.06,.04-.06,.04-.06,.04-.06,.04-.06,.04-.06,.04-.06,.04-.06,.04-.06,.03-.06,.03-.06,.03-.06,.03-.06,.03-.06,.03-.07,.03-.07,.03-.07,.03-.07,.03-.07,.03-.07,.03-.07,.03-.07,.03-.07,.03-.07,.03-.07,.02-.07,.02-.07,.02-.07,.02-.07,.02-.07,.02-.07,.02-.07,.02-.07,.02-.07,.02-.07,.02-.07,.02-.07,.02-.07,.02-.07,.02h-.07s-.07,.03-.07,.03h-.07s-.07,.03-.07,.03h-.07s-.07,.02-.07,.02h-.07s-.07,.02-.07,.02h-.08s-.08,.02-.08,.02h-.08s-.08,.01-.08,.01h-.08s-.08,.01-.08,.01h-.08s-.08,0-.08,0h-.08s-.08,0-.08,0h-.08s-.08,0-.08,0h-.08s-.08,0-.08,0h-.08s-.08,0-.08,0h-.08s-.08,0-.08,0h-.08s-.08-.01-.08-.01h-.08s-.08-.01-.08-.01h-.08s-.08-.02-.08-.02h-.08s-.08-.02-.08-.02h-.08s-.08-.02-.08-.02h-.08s-.08-.03-.08-.03h-.08s-.08-.03-.08-.03l-.08-.02-.08-.02-.08-.02-.08-.02-.08-.02-.08-.02-.08-.02-.08-.02-.08-.02-.08-.02-.08-.02-.08-.02-.08-.03-.08-.03-.07-.03-.07-.03-.07-.03-.07-.03-.07-.03-.07-.03-.07-.03-.07-.03-.07-.03-.07-.03-.07-.03-.07-.04-.07-.04-.07-.04-.07-.04-.07-.04-.07-.04-.07-.04-.07-.04-.07-.04-.07-.04-.07-.04-.07-.04-.07-.04-.07-.05-.07-.05-.07-.05-.07-.05-.07-.05-.07-.05-.07-.05-.06-.05-.06-.05-.06-.05-.06-.05-.06-.05-.06-.05-.06-.05-.06-.05-.06-.06-.06-.06-.06-.06-.06-.06-.06-.06-.06-.06-.06-.06-.06-.06-.06-.06-.06-.06-.06-.06-.05-.06-.05-.06-.05-.06-.05-.06-.05-.07-.05-.07-.05-.07-.05-.07-.05-.07-.05-.07-.05-.07-.05-.07-.05-.07-.05-.07-.05-.07-.05-.07-.04-.07-.04-.07-.04-.07-.04-.07-.04-.07-.04-.07-.04-.07-.04-.08-.04-.08-.04-.08-.04-.08-.04-.08-.04-.08-.04-.08-.03-.08-.03-.08-.03-.08-.03-.08-.03-.08-.03-.08-.03-.08-.03-.08-.03-.08-.03-.08-.03-.08-.03-.08-.02-.08-.02-.08-.02-.08-.02-.08-.02-.08-.02-.08-.02-.08-.02-.08-.02-.09-.02-.09-.02-.09-.02-.09v-.09s-.03-.09-.03-.09v-.09s-.02-.09-.02-.09v-.09s-.02-.09-.02-.09v-.09s-.02-.09-.02-.09v-.09s-.01-.09-.01-.09v-.09s-.01-.09-.01-.09v-.09s0-.09,0-.09v-.09s0-.09,0-.09v-.09s0-.09,0-.09v-.09s0-.09,0-.09v-.09s0-.09,0-.09v-.09s.01-.09,.01-.09v-.09s.02-.09,.02-.09v-.09s.02-.09,.02-.09v-.09s.02-.09,.02-.09v-.09s.03-.09,.03-.09v-.09s.03-.09,.03-.09l.02-.09,.02-.09,.02-.09,.02-.09,.02-.09,.02-.09,.02-.09,.02-.09,.02-.09,.03-.09,.03-.09,.03-.09,.03-.09,.03-.09,.03-.09,.03-.09,.03-.09,.03-.09,.03-.09,.03-.09,.04-.09,.04-.08,.04-.08,.04-.08,.04-.08,.04-.08,.04-.08,.04-.08,.04-.08,.04-.08,.04-.08,.05-.08,.05-.08,.05-.08,.05-.08,.05-.08,.05-.08,.05-.08,.05-.08,.05-.08,.05-.08,.05-.08,.05-.08,.06-.08,.06-.08,.06-.08,.06-.08,.06-.07,.06-.07,.06-.07,.06-.07,.06-.07,.06-.07,.06-.07,.06-.07,.07-.07,.07-.07,.07-.07,.07-.07,.07-.07,.07-.07,.07-.07,.07-.07,.07-.07,.07-.06,.07-.06,.07-.06,.07-.06,.08-.06,.08-.06,.08-.06,.08-.06,.08-.06,.08-.06,.08-.06,.08-.06,.08-.06,.08-.06,.08-.05,.08-.05,.08-.05,.08-.05,.08-.05,.09-.05,.09-.05,.09-.05,.09-.05,.09-.05,.09-.05,.09-.05,.09-.05,.09-.04,.09-.04,.09-.04,.09-.04,.09-.04,.09-.04,.09-.04,.09-.04,.09-.04,.09-.04,.09-.04,.1-.03,.1-.03,.1-.03,.1-.03,.1-.03,.1-.03,.1-.03,.1-.03,.1-.03,.1-.03,.1-.03,.1-.02,.1-.02,.1-.02,.1-.02,.1-.02,.1-.02h.05Zm1.24,7.25l-1.15,.28-.07-5.71h-.05s-.08,.03-.08,.03l-.08,.02-.08,.02-.08,.02-.08,.02-.08,.02-.08,.02-.08,.02-.08,.03-.08,.03-.08,.03-.08,.03-.08,.03-.08,.03-.08,.03-.08,.03-.08,.03-.08,.03-.08,.03-.08,.03-.07,.03-.07,.04-.07,.04-.07,.04-.07,.04-.07,.04-.07,.04-.07,.04-.07,.04-.07,.04-.07,.04-.07,.04-.07,.04-.07,.04-.07,.04-.07,.04-.07,.04-.07,.05-.07,.05-.06,.05-.06,.05-.06,.05-.06,.05-.06,.05-.06,.05-.06,.05-.06,.05-.06,.05-.06,.05-.06,.05-.06,.05-.06,.05-.06,.05-.06,.05-.06,.05-.06,.06-.05,.06-.05,.06-.05,.06-.05,.06-.05,.06-.05,.06-.05,.06-.05,.06-.05,.06-.05,.06-.05,.06-.05,.06-.05,.06-.05,.06-.05,.06-.05,.06-.04,.06-.04,.06-.04,.06-.04,.06-.04,.06-.04,.06-.04,.06-.04,.06-.04,.07-.04,.07-.04,.07-.04,.07-.04,.07-.03,.07-.03,.07-.03,.07-.03,.07-.03,.07-.03,.07-.03,.07-.03,.07-.03,.07-.03,.07-.03,.07-.03,.07-.03,.07-.03,.07-.02,.07-.02,.07-.02,.07-.02,.07-.02,.07-.02,.07-.02,.07-.02,.07-.02,.07-.02,.07-.02,.07-.02,.07-.02,.07v.07s-.03,.07-.03,.07v.07s-.03,.07-.03,.07v.07s-.02,.07-.02,.07v.07s-.02,.07-.02,.07v.07s-.02,.07-.02,.07v.07s-.01,.07-.01,.07v.07s-.01,.07-.01,.07v.07s0,.07,0,.07v.07s0,.07,0,.07v.07s0,.07,0,.07v.07s0,.07,0,.07v.07s0,.07,0,.07v.07s0,.07,0,.07v.07s0,.07,0,.07v.07s.01,.07,.01,.07v.07s.02,.07,.02,.07v.07s.02,.07,.02,.07v.07s.02,.07,.02,.07v.07s.02,.07,.02,.07v.07s.03,.07,.03,.07v.07s.03,.07,.03,.07l.02,.07,.02,.07,.02,.07,.02,.07,.02,.07,.02,.07,.02,.07,.02,.07,.02,.06,.02,.06,.02,.06,.02,.06,.02,.06,.02,.06,.02,.06,.03,.06,.03,.06,.03,.06,.03,.06,.03,.06,.03,.06,.03,.06,.03,.06,.03,.06,.03,.06,.03,.06,.03,.06,.03,.06,.03,.06,.03,.06,.03,.06,.03,.06,.03,.06,.04,.06,.04,.06,.04,.05,.04,.05,.04,.05,.04,.05,.04,.05,.04,.05,.04,.05,.04,.05,.04,.05,.04,.05,.04,.05,.04,.05,.04,.05,.04,.05,.04,.05,.04,.05,.04,.05,.04,.05,.05,.05,.05,.05,.05,.05,.05,.04,.05,.04,.05,.04,.05,.04,.05,.04,.05,.04,.05,.04,.05,.04,.05,.04,.05,.04,.05,.04,.05,.04,.05,.04,.05,.04,.05,.04,.05,.04,.05,.04,.05,.04,.05,.03,.05,.03,.05,.03,.05,.03,.05,.03,.05,.03,.05,.03,.05,.03,.05,.03,.05,.03,.05,.03,.06,.03,.06,.03,.06,.03,.06,.03,.06,.03,.06,.03,.06,.02,.06,.02,.06,.02,.06,.02,.06,.02,.06,.02,.06,.02,.06,.02,.06,.02,.06,.02,.06,.02,.06,.02,.06,.02,.06,.02,.06,.02,.06,.02,.06,.02h.06s.06,.03,.06,.03h.06s.06,.03,.06,.03h.06s.06,.02,.06,.02h.06s.06,.02,.06,.02h.06s.06,.02,.06,.02h.06s.06,.02,.06,.02h.06s.06,.01,.06,.01h.06s.06,.01,.06,.01h.06s.06,0,.06,0h.06s.06,0,.06,0h.06s.06,0,.06,0h.06s.06,0,.06,0h.06s.06,0,.06,0h.06s.06,0,.06,0h.06s.06,0,.06,0h.06s.06,0,.06,0h.06s.06,0,.06,0h.06s.06-.01,.06-.01h.06s.06-.01,.06-.01h.06s.06-.02,.06-.02h.06s.06-.02,.06-.02h.06s.06-.02,.06-.02h.06s.05-.02,.05-.02h.05s.05-.02,.05-.02h.05s.05-.03,.05-.03h.05s.05-.03,.05-.03h.05s.05-.03,.05-.03l.05-.02,.05-.02,.05-.02,.05-.02,.05-.02,.05-.02,.05-.02,.05-.02,.05-.02,.05-.02,.05-.02,.05-.02,.05-.02,.05-.02,.05-.02,.05-.02,.05-.02,.05-.02,.05-.02,.05-.02,.05-.03,.05-.03,.05-.03,.05-.03,.05-.03,.05-.03,.04-.03,.04-.03,.04-.03,.04-.03,.04-.03,.04-.03,.04-.03,.04-.03,.04-.03,.04-.03,.04-.03,.04-.03,.04-.03,.04-.03,.04-.03,.04-.03,.04-.03,.04-.03,.04-.03,.04-.03,.04-.03,.04-.04,.04-.04,.04-.04,.03-.04,.03-.04,.03-.04,.03-.04,.03-.04,.03-.04,.03-.04,.03-.04,.03-.04,.03-.04,.03-.04,.03-.04,.03-.04,.03-.04,.03-.04,.03-.04,.03-.04,.03-.04,.03-.04,.03-.04,.03-.04,.03-.04,.02-.04,.02-.04,.02-.04,.02-.04,.02-.04,.02-.04,.02-.04,.02-.04,.02-.04,.02-.04,.02-.04,.02-.04,.02-.04,.02-.04,.02-.04,.02-.04,.02-.04,.02-.04,.02-.04,.02-.04,.02-.04v-.04s.03-.04,.03-.04v-.04s.03-.04,.03-.04v-.04s.03-.04,.03-.04v-.04s.02-.04,.02-.04v-.04s.02-.04,.02-.04v-.04s.02-.04,.02-.04v-.04s.02-.04,.02-.04v-.04s.02-.04,.02-.04v-.04s.01-.04,.01-.04v-.04s.01-.04,.01-.04v-.04s0-.04,0-.04v-.04s0-.04,0-.04v-.04s0-.04,0-.04v-.04s0-.04,0-.04v-.04s0-.04,0-.04v-.04s0-.04,0-.04v-.04s0-.04,0-.04v-.04s0-.04,0-.04v-.04s0-.04,0-.04v-.04s0-.04,0-.04v-.04s0-.04,0-.04v-.04s-.01-.04-.01-.04v-.04s-.01-.04-.01-.04v-.04s-.01-.04-.01-.04v-.04s-.01-.04-.01-.04v-.04s-.02-.04-.02-.04v-.04s-.02-.04-.02-.04v-.04s-.02-.04-.02-.04v-.04s-.02-.04-.02-.04v-.04s-.02-.04-.02-.04v-.04s-.02-.04-.02-.04v-.04s-.03-.04-.03-.04v-.04s-.03-.04-.03-.04v-.04s-.03-.04-.03-.04l-.02-.04-.02-.04-.02-.04-.02-.04-.02-.04-.02-.04-.02-.04-.02-.04-.02-.03-.02-.03-.02-.03-.02-.03-.02-.03-.02-.03-.02-.03-.02-.03-.02-.03-.02-.03-.02-.03-.02-.03-.02-.03-.02-.03-.02-.03-.02-.03-.02-.03-.02-.03-.02-.03-.02-.03-.02-.03-.02-.03-.02-.03-.02-.03-.02-.03-.02-.03-.03-.03-.03-.03-.03-.03-.03-.03-.03-.03-.03-.03-.03-.03-.03-.03-.03-.02-.03-.02-.03-.02-.03-.02-.03-.02-.03-.02-.03-.02-.03-.02-.03-.02-.03-.02-.03-.02-.03-.02-.03-.02-.03-.02-.03-.02-.03-.02-.03-.02-.03-.02-.03-.02-.03-.02-.03-.02-.03-.02-.03-.02-.03-.02-.03-.02-.03-.02-.03-.02-.03-.02-.03-.02h-.03s-.03-.03-.03-.03h-.03s-.03-.03-.03-.03h-.03s-.03-.03-.03-.03h-.03s-.03-.02-.03-.02h-.03s-.03-.02-.03-.02h-.03s-.03-.02-.03-.02h-.03s-.03-.02-.03-.02h-.03s-.03-.02-.03-.02h-.03s-.03-.02-.03-.02h-.03s-.03-.02-.03-.02h-.03s-.03-.02-.03-.02h-.03s-.03-.01-.03-.01h-.03s-.03-.01-.03-.01h-.03s-.03-.01-.03-.01h-.03s-.03,0-.03,0h-.03s-.03,0-.03,0h-.03s-.03,0-.03,0h-.03s-.03,0-.03,0h-.03s-.03,0-.03,0h-.03s-.03,0-.03,0h-.03s-.03,0-.03,0h-.03s-.03,0-.03,0h-.03s-.03,0-.03,0h-.03s-.03,0-.03,0h-.03s-.03,0-.03,0h-.03s-.03,0-.03,0h-.03s-.03,0-.03,0h-.03s-.03,0-.03,0h-.03s-.03,0-.03,0h-.03s-.03,0-.03,0h-.03s-.03,.01-.03,.01h-.03s-.03,.01-.03,.01h-.03s-.03,.01-.03,.01Z"/>
  </g>
</svg>