<?xml version="1.0" encoding="UTF-8"?>
<svg id="Layer_1" data-name="Layer 1" xmlns="http://www.w3.org/2000/svg" viewBox="0 0 169 42">
  <defs>
    <style>
      .cls-1 {
        fill: #0a2d49;
      }
    </style>
  </defs>
  <path class="cls-1" d="M50.08,29.7h11.95v-3.6h-7.7V12.54h-4.25V29.7Z"/>
  <path class="cls-1" d="M69.11,27.3c-1.7,0-2.59-1.49-2.59-3.72s.89-3.74,2.59-3.74,2.62,1.51,2.62,3.74-.91,3.72-2.62,3.72Zm.02,2.78c3.96,0,6.55-2.81,6.55-6.5s-2.59-6.5-6.55-6.5-6.58,2.81-6.58,6.5,2.64,6.5,6.58,6.5Z"/>
  <path class="cls-1" d="M82.54,33.95c1.82,0,3.43-.41,4.51-1.37,.98-.89,1.63-2.23,1.63-4.08v-11.09h-3.74v1.32h-.05c-.72-1.03-1.82-1.68-3.46-1.68-3.05,0-5.16,2.54-5.16,6.14s2.57,5.83,5.33,5.83c1.49,0,2.42-.6,3.14-1.42h.1v1.22c0,1.49-.7,2.35-2.35,2.35-1.3,0-1.94-.55-2.16-1.2h-3.79c.38,2.57,2.62,3.96,6,3.96Zm-.02-7.82c-1.46,0-2.42-1.2-2.42-3.05s.96-3.07,2.42-3.07c1.63,0,2.5,1.39,2.5,3.05s-.79,3.07-2.5,3.07Z"/>
  <path class="cls-1" d="M96.38,27.3c-1.7,0-2.59-1.49-2.59-3.72s.89-3.74,2.59-3.74,2.62,1.51,2.62,3.74-.91,3.72-2.62,3.72Zm.02,2.78c3.96,0,6.55-2.81,6.55-6.5s-2.59-6.5-6.55-6.5-6.58,2.81-6.58,6.5,2.64,6.5,6.58,6.5Z"/>
  <path class="cls-1" d="M104.1,29.7h3.91v-12.29h-3.91v12.29Zm0-13.99h3.91v-3.17h-3.91v3.17Z"/>
  <path class="cls-1" d="M109.71,33.76h3.91v-5.33h.05c.77,1.03,1.9,1.66,3.48,1.66,3.22,0,5.35-2.54,5.35-6.53,0-3.7-1.99-6.5-5.26-6.5-1.68,0-2.88,.74-3.72,1.85h-.07v-1.49h-3.74v16.34Zm6.43-6.7c-1.68,0-2.64-1.37-2.64-3.36s.86-3.5,2.57-3.5,2.47,1.39,2.47,3.5-.91,3.36-2.4,3.36Z"/>
  <path class="cls-1" d="M128.87,30.09c3.22,0,5.59-1.39,5.59-4.08,0-3.14-2.54-3.7-4.7-4.06-1.56-.29-2.95-.41-2.95-1.27,0-.77,.74-1.13,1.7-1.13,1.08,0,1.82,.34,1.97,1.44h3.6c-.19-2.42-2.06-3.94-5.54-3.94-2.9,0-5.3,1.34-5.3,3.94,0,2.88,2.28,3.46,4.42,3.82,1.63,.29,3.12,.41,3.12,1.51,0,.79-.74,1.22-1.92,1.22-1.3,0-2.11-.6-2.26-1.82h-3.7c.12,2.71,2.38,4.37,5.98,4.37Z"/>
  <path class="cls-1" d="M139.78,30.06c1.7,0,2.78-.67,3.67-1.87h.07v1.51h3.74v-12.29h-3.91v6.86c0,1.46-.82,2.47-2.16,2.47-1.25,0-1.85-.74-1.85-2.09v-7.25h-3.89v8.06c0,2.74,1.49,4.58,4.32,4.58Z"/>
  <path class="cls-1" d="M148.97,29.7h3.91v-6.89c0-1.46,.72-2.5,1.94-2.5s1.73,.77,1.73,2.09v7.3h3.91v-6.89c0-1.46,.7-2.5,1.94-2.5,1.18,0,1.73,.77,1.73,2.09v7.3h3.91v-7.99c0-2.76-1.39-4.66-4.18-4.66-1.58,0-2.9,.67-3.86,2.16h-.05c-.62-1.32-1.85-2.16-3.46-2.16-1.78,0-2.95,.84-3.72,2.11h-.07v-1.75h-3.74v12.29Z"/>
  <path class="cls-1" d="M26.21,2.73l-3.93-1.05-3.31,12.37L15.97,2.87l-3.93,1.05,3.23,12.07L7.22,7.94l-2.88,2.88,8.83,8.83-11-2.95-1.05,3.93,12.02,3.22c-.14-.59-.21-1.21-.21-1.85,0-4.5,3.65-8.14,8.14-8.14s8.14,3.65,8.14,8.14c0,.63-.07,1.25-.21,1.84l10.92,2.93,1.05-3.93-12.07-3.23,11-2.95-1.05-3.93-12.07,3.23,8.05-8.05-2.88-2.88-8.71,8.71,2.95-11.01Z"/>
  <path class="cls-1" d="M28.99,23.89c-.34,1.43-1.05,2.71-2.03,3.73l7.91,7.91,2.88-2.88-8.77-8.77Z"/>
  <path class="cls-1" d="M26.89,27.71c-.99,1.01-2.24,1.76-3.64,2.15l2.88,10.75,3.93-1.05-3.17-11.84Z"/>
  <path class="cls-1" d="M23.1,29.9c-.65,.17-1.33,.26-2.03,.26-.75,0-1.48-.1-2.17-.29l-2.88,10.76,3.93,1.05,3.15-11.77Z"/>
  <path class="cls-1" d="M18.76,29.82c-1.38-.41-2.61-1.17-3.58-2.18l-7.93,7.93,2.88,2.88,8.63-8.63Z"/>
  <path class="cls-1" d="M15.12,27.57c-.95-1.02-1.65-2.28-1.98-3.69l-10.96,2.94,1.05,3.93,11.88-3.18Z"/>
</svg>